<svg xmlns="http://www.w3.org/2000/svg" width="1024" height="1024" viewBox="0 0 1024 1024">
<defs>
<radialGradient id="bg" cx="0.22" cy="0.16" r="1.05"><stop offset="0" stop-color="#ffffff"></stop><stop offset="1" stop-color="#dfe0e6"></stop></radialGradient>
<linearGradient id="bar" x1="0" y1="0" x2="0" y2="1"><stop offset="0" stop-color="#3d4450"></stop><stop offset="1" stop-color="#171c24"></stop></linearGradient>
<linearGradient id="gloss" x1="0" y1="0" x2="0" y2="1"><stop offset="0" stop-color="#ffffff" stop-opacity="0.5"></stop><stop offset="0.5" stop-color="#ffffff" stop-opacity="0"></stop></linearGradient>
<clipPath id="clip"><path d="M928.00 512.00 L927.94 591.43 L927.74 620.83 L927.42 642.82 L926.96 661.04 L926.38 676.87 L925.66 691.01 L924.82 703.87 L923.84 715.72 L922.74 726.74 L921.50 737.05 L920.12 746.75 L918.62 755.93 L916.98 764.64 L915.21 772.92 L913.30 780.83 L911.25 788.38 L909.06 795.61 L906.74 802.54 L904.28 809.19 L901.67 815.57 L898.92 821.71 L896.03 827.60 L892.99 833.28 L889.79 838.73 L886.45 843.98 L882.96 849.03 L879.30 853.89 L875.49 858.56 L871.51 863.05 L867.37 867.37 L863.05 871.51 L858.56 875.49 L853.89 879.30 L849.03 882.96 L843.98 886.45 L838.73 889.79 L833.28 892.99 L827.60 896.03 L821.71 898.92 L815.57 901.67 L809.19 904.28 L802.54 906.74 L795.61 909.06 L788.38 911.25 L780.83 913.30 L772.92 915.21 L764.64 916.98 L755.93 918.62 L746.75 920.12 L737.05 921.50 L726.74 922.74 L715.72 923.84 L703.87 924.82 L691.01 925.66 L676.87 926.38 L661.04 926.96 L642.82 927.42 L620.83 927.74 L591.43 927.94 L512.00 928.00 L432.57 927.94 L403.17 927.74 L381.18 927.42 L362.96 926.96 L347.13 926.38 L332.99 925.66 L320.13 924.82 L308.28 923.84 L297.26 922.74 L286.95 921.50 L277.25 920.12 L268.07 918.62 L259.36 916.98 L251.08 915.21 L243.17 913.30 L235.62 911.25 L228.39 909.06 L221.46 906.74 L214.81 904.28 L208.43 901.67 L202.29 898.92 L196.40 896.03 L190.72 892.99 L185.27 889.79 L180.02 886.45 L174.97 882.96 L170.11 879.30 L165.44 875.49 L160.95 871.51 L156.63 867.37 L152.49 863.05 L148.51 858.56 L144.70 853.89 L141.04 849.03 L137.55 843.98 L134.21 838.73 L131.01 833.28 L127.97 827.60 L125.08 821.71 L122.33 815.57 L119.72 809.19 L117.26 802.54 L114.94 795.61 L112.75 788.38 L110.70 780.83 L108.79 772.92 L107.02 764.64 L105.38 755.93 L103.88 746.75 L102.50 737.05 L101.26 726.74 L100.16 715.72 L99.18 703.87 L98.34 691.01 L97.62 676.87 L97.04 661.04 L96.58 642.82 L96.26 620.83 L96.06 591.43 L96.00 512.00 L96.06 432.57 L96.26 403.17 L96.58 381.18 L97.04 362.96 L97.62 347.13 L98.34 332.99 L99.18 320.13 L100.16 308.28 L101.26 297.26 L102.50 286.95 L103.88 277.25 L105.38 268.07 L107.02 259.36 L108.79 251.08 L110.70 243.17 L112.75 235.62 L114.94 228.39 L117.26 221.46 L119.72 214.81 L122.33 208.43 L125.08 202.29 L127.97 196.40 L131.01 190.72 L134.21 185.27 L137.55 180.02 L141.04 174.97 L144.70 170.11 L148.51 165.44 L152.49 160.95 L156.63 156.63 L160.95 152.49 L165.44 148.51 L170.11 144.70 L174.97 141.04 L180.02 137.55 L185.27 134.21 L190.72 131.01 L196.40 127.97 L202.29 125.08 L208.43 122.33 L214.81 119.72 L221.46 117.26 L228.39 114.94 L235.62 112.75 L243.17 110.70 L251.08 108.79 L259.36 107.02 L268.07 105.38 L277.25 103.88 L286.95 102.50 L297.26 101.26 L308.28 100.16 L320.13 99.18 L332.99 98.34 L347.13 97.62 L362.96 97.04 L381.18 96.58 L403.17 96.26 L432.57 96.06 L512.00 96.00 L591.43 96.06 L620.83 96.26 L642.82 96.58 L661.04 97.04 L676.87 97.62 L691.01 98.34 L703.87 99.18 L715.72 100.16 L726.74 101.26 L737.05 102.50 L746.75 103.88 L755.93 105.38 L764.64 107.02 L772.92 108.79 L780.83 110.70 L788.38 112.75 L795.61 114.94 L802.54 117.26 L809.19 119.72 L815.57 122.33 L821.71 125.08 L827.60 127.97 L833.28 131.01 L838.73 134.21 L843.98 137.55 L849.03 141.04 L853.89 144.70 L858.56 148.51 L863.05 152.49 L867.37 156.63 L871.51 160.95 L875.49 165.44 L879.30 170.11 L882.96 174.97 L886.45 180.02 L889.79 185.27 L892.99 190.72 L896.03 196.40 L898.92 202.29 L901.67 208.43 L904.28 214.81 L906.74 221.46 L909.06 228.39 L911.25 235.62 L913.30 243.17 L915.21 251.08 L916.98 259.36 L918.62 268.07 L920.12 277.25 L921.50 286.95 L922.74 297.26 L923.84 308.28 L924.82 320.13 L925.66 332.99 L926.38 347.13 L926.96 362.96 L927.42 381.18 L927.74 403.17 L927.94 432.57 L928.00 512.00 Z"></path></clipPath>
<filter id="ds" x="-30%" y="-30%" width="160%" height="160%"><feDropShadow dx="0" dy="22" stdDeviation="26" flood-color="#000000" flood-opacity="0.26"></feDropShadow></filter>
<filter id="gds" x="-40%" y="-40%" width="180%" height="180%"><feDropShadow dx="0" dy="14" stdDeviation="20" flood-color="rgba(15,20,30,0.34)" flood-opacity="1"></feDropShadow></filter>
<filter id="blur" x="-20%" y="-20%" width="140%" height="140%"><feGaussianBlur stdDeviation="22"></feGaussianBlur></filter>
</defs>
<g filter="url(#ds)"><path d="M928.00 512.00 L927.94 591.43 L927.74 620.83 L927.42 642.82 L926.96 661.04 L926.38 676.87 L925.66 691.01 L924.82 703.87 L923.84 715.72 L922.74 726.74 L921.50 737.05 L920.12 746.75 L918.62 755.93 L916.98 764.64 L915.21 772.92 L913.30 780.83 L911.25 788.38 L909.06 795.61 L906.74 802.54 L904.28 809.19 L901.67 815.57 L898.92 821.71 L896.03 827.60 L892.99 833.28 L889.79 838.73 L886.45 843.98 L882.96 849.03 L879.30 853.89 L875.49 858.56 L871.51 863.05 L867.37 867.37 L863.05 871.51 L858.56 875.49 L853.89 879.30 L849.03 882.96 L843.98 886.45 L838.73 889.79 L833.28 892.99 L827.60 896.03 L821.71 898.92 L815.57 901.67 L809.19 904.28 L802.54 906.74 L795.61 909.06 L788.38 911.25 L780.83 913.30 L772.92 915.21 L764.64 916.98 L755.93 918.62 L746.75 920.12 L737.05 921.50 L726.74 922.74 L715.72 923.84 L703.87 924.82 L691.01 925.66 L676.87 926.38 L661.04 926.96 L642.82 927.42 L620.83 927.74 L591.43 927.94 L512.00 928.00 L432.57 927.94 L403.17 927.74 L381.18 927.42 L362.96 926.96 L347.13 926.38 L332.99 925.66 L320.13 924.82 L308.28 923.84 L297.26 922.74 L286.95 921.50 L277.25 920.12 L268.07 918.62 L259.36 916.98 L251.08 915.21 L243.17 913.30 L235.62 911.25 L228.39 909.06 L221.46 906.74 L214.81 904.28 L208.43 901.67 L202.29 898.92 L196.40 896.03 L190.72 892.99 L185.27 889.79 L180.02 886.45 L174.97 882.96 L170.11 879.30 L165.44 875.49 L160.95 871.51 L156.63 867.37 L152.49 863.05 L148.51 858.56 L144.70 853.89 L141.04 849.03 L137.55 843.98 L134.21 838.73 L131.01 833.28 L127.97 827.60 L125.08 821.71 L122.33 815.57 L119.72 809.19 L117.26 802.54 L114.94 795.61 L112.75 788.38 L110.70 780.83 L108.79 772.92 L107.02 764.64 L105.38 755.93 L103.88 746.75 L102.50 737.05 L101.26 726.74 L100.16 715.72 L99.18 703.87 L98.34 691.01 L97.62 676.87 L97.04 661.04 L96.58 642.82 L96.26 620.83 L96.06 591.43 L96.00 512.00 L96.06 432.57 L96.26 403.17 L96.58 381.18 L97.04 362.96 L97.62 347.13 L98.34 332.99 L99.18 320.13 L100.16 308.28 L101.26 297.26 L102.50 286.95 L103.88 277.25 L105.38 268.07 L107.02 259.36 L108.79 251.08 L110.70 243.17 L112.75 235.62 L114.94 228.39 L117.26 221.46 L119.72 214.81 L122.33 208.43 L125.08 202.29 L127.97 196.40 L131.01 190.72 L134.21 185.27 L137.55 180.02 L141.04 174.97 L144.70 170.11 L148.51 165.44 L152.49 160.95 L156.63 156.63 L160.95 152.49 L165.44 148.51 L170.11 144.70 L174.97 141.04 L180.02 137.55 L185.27 134.21 L190.72 131.01 L196.40 127.97 L202.29 125.08 L208.43 122.33 L214.81 119.72 L221.46 117.26 L228.39 114.94 L235.62 112.75 L243.17 110.70 L251.08 108.79 L259.36 107.02 L268.07 105.38 L277.25 103.88 L286.95 102.50 L297.26 101.26 L308.28 100.16 L320.13 99.18 L332.99 98.34 L347.13 97.62 L362.96 97.04 L381.18 96.58 L403.17 96.26 L432.57 96.06 L512.00 96.00 L591.43 96.06 L620.83 96.26 L642.82 96.58 L661.04 97.04 L676.87 97.62 L691.01 98.34 L703.87 99.18 L715.72 100.16 L726.74 101.26 L737.05 102.50 L746.75 103.88 L755.93 105.38 L764.64 107.02 L772.92 108.79 L780.83 110.70 L788.38 112.75 L795.61 114.94 L802.54 117.26 L809.19 119.72 L815.57 122.33 L821.71 125.08 L827.60 127.97 L833.28 131.01 L838.73 134.21 L843.98 137.55 L849.03 141.04 L853.89 144.70 L858.56 148.51 L863.05 152.49 L867.37 156.63 L871.51 160.95 L875.49 165.44 L879.30 170.11 L882.96 174.97 L886.45 180.02 L889.79 185.27 L892.99 190.72 L896.03 196.40 L898.92 202.29 L901.67 208.43 L904.28 214.81 L906.74 221.46 L909.06 228.39 L911.25 235.62 L913.30 243.17 L915.21 251.08 L916.98 259.36 L918.62 268.07 L920.12 277.25 L921.50 286.95 L922.74 297.26 L923.84 308.28 L924.82 320.13 L925.66 332.99 L926.38 347.13 L926.96 362.96 L927.42 381.18 L927.74 403.17 L927.94 432.57 L928.00 512.00 Z" fill="url(#bg)"></path></g>
<g clip-path="url(#clip)">
<rect width="1024" height="1024" fill="url(#gloss)" opacity="0.5"></rect>
<path d="M928.00 512.00 L927.94 591.43 L927.74 620.83 L927.42 642.82 L926.96 661.04 L926.38 676.87 L925.66 691.01 L924.82 703.87 L923.84 715.72 L922.74 726.74 L921.50 737.05 L920.12 746.75 L918.62 755.93 L916.98 764.64 L915.21 772.92 L913.30 780.83 L911.25 788.38 L909.06 795.61 L906.74 802.54 L904.28 809.19 L901.67 815.57 L898.92 821.71 L896.03 827.60 L892.99 833.28 L889.79 838.73 L886.45 843.98 L882.96 849.03 L879.30 853.89 L875.49 858.56 L871.51 863.05 L867.37 867.37 L863.05 871.51 L858.56 875.49 L853.89 879.30 L849.03 882.96 L843.98 886.45 L838.73 889.79 L833.28 892.99 L827.60 896.03 L821.71 898.92 L815.57 901.67 L809.19 904.28 L802.54 906.74 L795.61 909.06 L788.38 911.25 L780.83 913.30 L772.92 915.21 L764.64 916.98 L755.93 918.62 L746.75 920.12 L737.05 921.50 L726.74 922.74 L715.72 923.84 L703.87 924.82 L691.01 925.66 L676.87 926.38 L661.04 926.96 L642.82 927.42 L620.83 927.74 L591.43 927.94 L512.00 928.00 L432.57 927.94 L403.17 927.74 L381.18 927.42 L362.96 926.96 L347.13 926.38 L332.99 925.66 L320.13 924.82 L308.28 923.84 L297.26 922.74 L286.95 921.50 L277.25 920.12 L268.07 918.62 L259.36 916.98 L251.08 915.21 L243.17 913.30 L235.62 911.25 L228.39 909.06 L221.46 906.74 L214.81 904.28 L208.43 901.67 L202.29 898.92 L196.40 896.03 L190.72 892.99 L185.27 889.79 L180.02 886.45 L174.97 882.96 L170.11 879.30 L165.44 875.49 L160.95 871.51 L156.63 867.37 L152.49 863.05 L148.51 858.56 L144.70 853.89 L141.04 849.03 L137.55 843.98 L134.21 838.73 L131.01 833.28 L127.97 827.60 L125.08 821.71 L122.33 815.57 L119.72 809.19 L117.26 802.54 L114.94 795.61 L112.75 788.38 L110.70 780.83 L108.79 772.92 L107.02 764.64 L105.38 755.93 L103.88 746.75 L102.50 737.05 L101.26 726.74 L100.16 715.72 L99.18 703.87 L98.34 691.01 L97.62 676.87 L97.04 661.04 L96.58 642.82 L96.26 620.83 L96.06 591.43 L96.00 512.00 L96.06 432.57 L96.26 403.17 L96.58 381.18 L97.04 362.96 L97.62 347.13 L98.34 332.99 L99.18 320.13 L100.16 308.28 L101.26 297.26 L102.50 286.95 L103.88 277.25 L105.38 268.07 L107.02 259.36 L108.79 251.08 L110.70 243.17 L112.75 235.62 L114.94 228.39 L117.26 221.46 L119.72 214.81 L122.33 208.43 L125.08 202.29 L127.97 196.40 L131.01 190.72 L134.21 185.27 L137.55 180.02 L141.04 174.97 L144.70 170.11 L148.51 165.44 L152.49 160.95 L156.63 156.63 L160.95 152.49 L165.44 148.51 L170.11 144.70 L174.97 141.04 L180.02 137.55 L185.27 134.21 L190.72 131.01 L196.40 127.97 L202.29 125.08 L208.43 122.33 L214.81 119.72 L221.46 117.26 L228.39 114.94 L235.62 112.75 L243.17 110.70 L251.08 108.79 L259.36 107.02 L268.07 105.38 L277.25 103.88 L286.95 102.50 L297.26 101.26 L308.28 100.16 L320.13 99.18 L332.99 98.34 L347.13 97.62 L362.96 97.04 L381.18 96.58 L403.17 96.26 L432.57 96.06 L512.00 96.00 L591.43 96.06 L620.83 96.26 L642.82 96.58 L661.04 97.04 L676.87 97.62 L691.01 98.34 L703.87 99.18 L715.72 100.16 L726.74 101.26 L737.05 102.50 L746.75 103.88 L755.93 105.38 L764.64 107.02 L772.92 108.79 L780.83 110.70 L788.38 112.75 L795.61 114.94 L802.54 117.26 L809.19 119.72 L815.57 122.33 L821.71 125.08 L827.60 127.97 L833.28 131.01 L838.73 134.21 L843.98 137.55 L849.03 141.04 L853.89 144.70 L858.56 148.51 L863.05 152.49 L867.37 156.63 L871.51 160.95 L875.49 165.44 L879.30 170.11 L882.96 174.97 L886.45 180.02 L889.79 185.27 L892.99 190.72 L896.03 196.40 L898.92 202.29 L901.67 208.43 L904.28 214.81 L906.74 221.46 L909.06 228.39 L911.25 235.62 L913.30 243.17 L915.21 251.08 L916.98 259.36 L918.62 268.07 L920.12 277.25 L921.50 286.95 L922.74 297.26 L923.84 308.28 L924.82 320.13 L925.66 332.99 L926.38 347.13 L926.96 362.96 L927.42 381.18 L927.74 403.17 L927.94 432.57 L928.00 512.00 Z" fill="none" stroke="rgba(80,82,92,0.15)" stroke-width="3" opacity="0.9"></path>
<path d="M928.00 512.00 L927.94 591.43 L927.74 620.83 L927.42 642.82 L926.96 661.04 L926.38 676.87 L925.66 691.01 L924.82 703.87 L923.84 715.72 L922.74 726.74 L921.50 737.05 L920.12 746.75 L918.62 755.93 L916.98 764.64 L915.21 772.92 L913.30 780.83 L911.25 788.38 L909.06 795.61 L906.74 802.54 L904.28 809.19 L901.67 815.57 L898.92 821.71 L896.03 827.60 L892.99 833.28 L889.79 838.73 L886.45 843.98 L882.96 849.03 L879.30 853.89 L875.49 858.56 L871.51 863.05 L867.37 867.37 L863.05 871.51 L858.56 875.49 L853.89 879.30 L849.03 882.96 L843.98 886.45 L838.73 889.79 L833.28 892.99 L827.60 896.03 L821.71 898.92 L815.57 901.67 L809.19 904.28 L802.54 906.74 L795.61 909.06 L788.38 911.25 L780.83 913.30 L772.92 915.21 L764.64 916.98 L755.93 918.62 L746.75 920.12 L737.05 921.50 L726.74 922.74 L715.72 923.84 L703.87 924.82 L691.01 925.66 L676.87 926.38 L661.04 926.96 L642.82 927.42 L620.83 927.74 L591.43 927.94 L512.00 928.00 L432.57 927.94 L403.17 927.74 L381.18 927.42 L362.96 926.96 L347.13 926.38 L332.99 925.66 L320.13 924.82 L308.28 923.84 L297.26 922.74 L286.95 921.50 L277.25 920.12 L268.07 918.62 L259.36 916.98 L251.08 915.21 L243.17 913.30 L235.62 911.25 L228.39 909.06 L221.46 906.74 L214.81 904.28 L208.43 901.67 L202.29 898.92 L196.40 896.03 L190.72 892.99 L185.27 889.79 L180.02 886.45 L174.97 882.96 L170.11 879.30 L165.44 875.49 L160.95 871.51 L156.63 867.37 L152.49 863.05 L148.51 858.56 L144.70 853.89 L141.04 849.03 L137.55 843.98 L134.21 838.73 L131.01 833.28 L127.97 827.60 L125.08 821.71 L122.33 815.57 L119.72 809.19 L117.26 802.54 L114.94 795.61 L112.75 788.38 L110.70 780.83 L108.79 772.92 L107.02 764.64 L105.38 755.93 L103.88 746.75 L102.50 737.05 L101.26 726.74 L100.16 715.72 L99.18 703.87 L98.34 691.01 L97.62 676.87 L97.04 661.04 L96.58 642.82 L96.26 620.83 L96.06 591.43 L96.00 512.00 L96.06 432.57 L96.26 403.17 L96.58 381.18 L97.04 362.96 L97.62 347.13 L98.34 332.99 L99.18 320.13 L100.16 308.28 L101.26 297.26 L102.50 286.95 L103.88 277.25 L105.38 268.07 L107.02 259.36 L108.79 251.08 L110.70 243.17 L112.75 235.62 L114.94 228.39 L117.26 221.46 L119.72 214.81 L122.33 208.43 L125.08 202.29 L127.97 196.40 L131.01 190.72 L134.21 185.27 L137.55 180.02 L141.04 174.97 L144.70 170.11 L148.51 165.44 L152.49 160.95 L156.63 156.63 L160.95 152.49 L165.44 148.51 L170.11 144.70 L174.97 141.04 L180.02 137.55 L185.27 134.21 L190.72 131.01 L196.40 127.97 L202.29 125.08 L208.43 122.33 L214.81 119.72 L221.46 117.26 L228.39 114.94 L235.62 112.75 L243.17 110.70 L251.08 108.79 L259.36 107.02 L268.07 105.38 L277.25 103.88 L286.95 102.50 L297.26 101.26 L308.28 100.16 L320.13 99.18 L332.99 98.34 L347.13 97.62 L362.96 97.04 L381.18 96.58 L403.17 96.26 L432.57 96.06 L512.00 96.00 L591.43 96.06 L620.83 96.26 L642.82 96.58 L661.04 97.04 L676.87 97.62 L691.01 98.34 L703.87 99.18 L715.72 100.16 L726.74 101.26 L737.05 102.50 L746.75 103.88 L755.93 105.38 L764.64 107.02 L772.92 108.79 L780.83 110.70 L788.38 112.75 L795.61 114.94 L802.54 117.26 L809.19 119.72 L815.57 122.33 L821.71 125.08 L827.60 127.97 L833.28 131.01 L838.73 134.21 L843.98 137.55 L849.03 141.04 L853.89 144.70 L858.56 148.51 L863.05 152.49 L867.37 156.63 L871.51 160.95 L875.49 165.44 L879.30 170.11 L882.96 174.97 L886.45 180.02 L889.79 185.27 L892.99 190.72 L896.03 196.40 L898.92 202.29 L901.67 208.43 L904.28 214.81 L906.74 221.46 L909.06 228.39 L911.25 235.62 L913.30 243.17 L915.21 251.08 L916.98 259.36 L918.62 268.07 L920.12 277.25 L921.50 286.95 L922.74 297.26 L923.84 308.28 L924.82 320.13 L925.66 332.99 L926.38 347.13 L926.96 362.96 L927.42 381.18 L927.74 403.17 L927.94 432.57 L928.00 512.00 Z" fill="none" stroke="#5a5d66" stroke-width="56" opacity="0.07" filter="url(#blur)"></path>
<g filter="url(#gds)">
<path d="M715.8313246763457 604.8912863549975 A 224 224 0 1 1 715.8313246763456 419.1087136450024" fill="none" stroke="url(#bar)" stroke-width="92" stroke-linecap="round"></path>
<path d="M301.5088529439565 435.3874878950502 A 224 224 0 0 1 722.4911470560435 435.38748789505024" fill="none" stroke="url(#gloss)" stroke-width="46" stroke-linecap="round" opacity="0.6" transform="translate(0,-16.56)"></path>
<circle cx="512" cy="512" r="86" fill="url(#bar)"></circle>
<ellipse cx="512" cy="475.88" rx="77.4" ry="49.879999999999995" fill="url(#gloss)" opacity="0.85"></ellipse>
</g>
<path d="M928.00 512.00 L927.94 591.43 L927.74 620.83 L927.42 642.82 L926.96 661.04 L926.38 676.87 L925.66 691.01 L924.82 703.87 L923.84 715.72 L922.74 726.74 L921.50 737.05 L920.12 746.75 L918.62 755.93 L916.98 764.64 L915.21 772.92 L913.30 780.83 L911.25 788.38 L909.06 795.61 L906.74 802.54 L904.28 809.19 L901.67 815.57 L898.92 821.71 L896.03 827.60 L892.99 833.28 L889.79 838.73 L886.45 843.98 L882.96 849.03 L879.30 853.89 L875.49 858.56 L871.51 863.05 L867.37 867.37 L863.05 871.51 L858.56 875.49 L853.89 879.30 L849.03 882.96 L843.98 886.45 L838.73 889.79 L833.28 892.99 L827.60 896.03 L821.71 898.92 L815.57 901.67 L809.19 904.28 L802.54 906.74 L795.61 909.06 L788.38 911.25 L780.83 913.30 L772.92 915.21 L764.64 916.98 L755.93 918.62 L746.75 920.12 L737.05 921.50 L726.74 922.74 L715.72 923.84 L703.87 924.82 L691.01 925.66 L676.87 926.38 L661.04 926.96 L642.82 927.42 L620.83 927.74 L591.43 927.94 L512.00 928.00 L432.57 927.94 L403.17 927.74 L381.18 927.42 L362.96 926.96 L347.13 926.38 L332.99 925.66 L320.13 924.82 L308.28 923.84 L297.26 922.74 L286.95 921.50 L277.25 920.12 L268.07 918.62 L259.36 916.98 L251.08 915.21 L243.17 913.30 L235.62 911.25 L228.39 909.06 L221.46 906.74 L214.81 904.28 L208.43 901.67 L202.29 898.92 L196.40 896.03 L190.72 892.99 L185.27 889.79 L180.02 886.45 L174.97 882.96 L170.11 879.30 L165.44 875.49 L160.95 871.51 L156.63 867.37 L152.49 863.05 L148.51 858.56 L144.70 853.89 L141.04 849.03 L137.55 843.98 L134.21 838.73 L131.01 833.28 L127.97 827.60 L125.08 821.71 L122.33 815.57 L119.72 809.19 L117.26 802.54 L114.94 795.61 L112.75 788.38 L110.70 780.83 L108.79 772.92 L107.02 764.64 L105.38 755.93 L103.88 746.75 L102.50 737.05 L101.26 726.74 L100.16 715.72 L99.18 703.87 L98.34 691.01 L97.62 676.87 L97.04 661.04 L96.58 642.82 L96.26 620.83 L96.06 591.43 L96.00 512.00 L96.06 432.57 L96.26 403.17 L96.58 381.18 L97.04 362.96 L97.62 347.13 L98.34 332.99 L99.18 320.13 L100.16 308.28 L101.26 297.26 L102.50 286.95 L103.88 277.25 L105.38 268.07 L107.02 259.36 L108.79 251.08 L110.70 243.17 L112.75 235.62 L114.94 228.39 L117.26 221.46 L119.72 214.81 L122.33 208.43 L125.08 202.29 L127.97 196.40 L131.01 190.72 L134.21 185.27 L137.55 180.02 L141.04 174.97 L144.70 170.11 L148.51 165.44 L152.49 160.95 L156.63 156.63 L160.95 152.49 L165.44 148.51 L170.11 144.70 L174.97 141.04 L180.02 137.55 L185.27 134.21 L190.72 131.01 L196.40 127.97 L202.29 125.08 L208.43 122.33 L214.81 119.72 L221.46 117.26 L228.39 114.94 L235.62 112.75 L243.17 110.70 L251.08 108.79 L259.36 107.02 L268.07 105.38 L277.25 103.88 L286.95 102.50 L297.26 101.26 L308.28 100.16 L320.13 99.18 L332.99 98.34 L347.13 97.62 L362.96 97.04 L381.18 96.58 L403.17 96.26 L432.57 96.06 L512.00 96.00 L591.43 96.06 L620.83 96.26 L642.82 96.58 L661.04 97.04 L676.87 97.62 L691.01 98.34 L703.87 99.18 L715.72 100.16 L726.74 101.26 L737.05 102.50 L746.75 103.88 L755.93 105.38 L764.64 107.02 L772.92 108.79 L780.83 110.70 L788.38 112.75 L795.61 114.94 L802.54 117.26 L809.19 119.72 L815.57 122.33 L821.71 125.08 L827.60 127.97 L833.28 131.01 L838.73 134.21 L843.98 137.55 L849.03 141.04 L853.89 144.70 L858.56 148.51 L863.05 152.49 L867.37 156.63 L871.51 160.95 L875.49 165.44 L879.30 170.11 L882.96 174.97 L886.45 180.02 L889.79 185.27 L892.99 190.72 L896.03 196.40 L898.92 202.29 L901.67 208.43 L904.28 214.81 L906.74 221.46 L909.06 228.39 L911.25 235.62 L913.30 243.17 L915.21 251.08 L916.98 259.36 L918.62 268.07 L920.12 277.25 L921.50 286.95 L922.74 297.26 L923.84 308.28 L924.82 320.13 L925.66 332.99 L926.38 347.13 L926.96 362.96 L927.42 381.18 L927.74 403.17 L927.94 432.57 L928.00 512.00 Z" fill="none" stroke="rgba(255,255,255,0.85)" stroke-width="6" transform="translate(0,2)"></path>
</g>
</svg>